#
# Object file
# Created by SpaceClaim
#

mtllib rec solid.mtl

# Design2\Solid
v 0 7 2
v 7 7 2
v 7 7 0
v 0 7 0
v 7 7 2
v 7 0 2
v 7 0 0
v 7 7 0
v 7 0 2
v 0 0 2
v 0 0 0
v 7 0 0
v 0 0 2
v 0 7 2
v 0 7 0
v 0 0 0
v 7 7 2
v 0 7 2
v 0 0 2
v 7 0 2
v 0 0 0
v 0 7 0
v 7 7 0
v 7 0 0
vn 0 1 0
vn 0 1 0
vn 0 1 0
vn 0 1 0
vn 1 0 0
vn 1 0 0
vn 1 0 0
vn 1 0 0
vn 0 -1 0
vn 0 -1 0
vn 0 -1 0
vn 0 -1 0
vn -1 0 0
vn -1 0 0
vn -1 0 0
vn -1 0 0
vn 0 0 1
vn 0 0 1
vn 0 0 1
vn 0 0 1
vn 0 0 -1
vn 0 0 -1
vn 0 0 -1
vn 0 0 -1
vt 0.0035 0.002
vt -0.0035 0.002
vt -0.0035 0
vt 0.0035 0
vt 0.0035 0.002
vt -0.0035 0.002
vt -0.0035 0
vt 0.0035 0
vt 0.0035 0.002
vt -0.0035 0.002
vt -0.0035 0
vt 0.0035 0
vt 0.0035 0.002
vt -0.0035 0.002
vt -0.0035 0
vt 0.0035 0
vt 0.007 0.007
vt 0 0.007
vt 0 0
vt 0.007 0
vt 0 0
vt 0 0.007
vt 0.007 0.007
vt 0.007 0

o Design2\Solid
g Design2\Solid
s off

usemtl mtl_0

# face 0
f 1/1/1 2/2/2 4/4/4
f 4/4/4 2/2/2 3/3/3

# face 1
f 5/5/5 6/6/6 8/8/8
f 8/8/8 6/6/6 7/7/7

# face 2
f 9/9/9 10/10/10 12/12/12
f 12/12/12 10/10/10 11/11/11

# face 3
f 13/13/13 14/14/14 16/16/16
f 16/16/16 14/14/14 15/15/15

# face 4
f 17/17/17 18/18/18 20/20/20
f 20/20/20 18/18/18 19/19/19

# face 5
f 22/22/22 23/23/23 21/21/21
f 21/21/21 23/23/23 24/24/24
